<?xml version="1.0" encoding="UTF-8" standalone="no"?>
<!-- Created with Inkscape (http://www.inkscape.org/) -->

<svg
   width="1658.4905"
   height="254.27278"
   viewBox="0 0 438.80892 67.276337"
   version="1.1"
   id="svg1"
   xml:space="preserve"
   xmlns="http://www.w3.org/2000/svg"
   xmlns:svg="http://www.w3.org/2000/svg"><defs
     id="defs1" /><g
     id="layer1"
     transform="translate(-38.841844,-27.686486)"><path
       class="st0"
       d="m 67.67707,43.284542 c 1.081023,-2.988866 2.281158,-5.815415 3.71491,-8.210984 2.904139,-4.8695 9.994993,-10.729693 14.332863,-5.054206 3.884402,5.076594 0.590906,10.623347 -4.035553,13.26519 h 10.466797 c 0.810769,0 1.571165,0.414187 2.093367,1.074648 0.540502,0.660462 0.879489,1.567197 0.879489,2.557887 v 6.890064 c 0,0.990692 -0.338987,1.919814 -0.879489,2.557887 -0.490137,0.598891 -1.131416,0.990692 -1.855174,1.05226 v 33.627529 c 0,1.074651 -0.352713,2.065337 -0.943611,2.76498 -0.572592,0.699643 -1.383361,1.153024 -2.262849,1.153024 H 44.851659 c -0.879487,0 -1.690258,-0.430982 -2.262841,-1.153024 -0.572584,-0.699643 -0.943613,-1.690329 -0.943613,-2.76498 V 57.439676 C 40.90313,57.378116 40.225199,56.98631 39.72133,56.387416 39.18081,55.726955 38.841844,54.820221 38.841844,53.82953 v -6.890065 c 0,-0.99069 0.338966,-1.919813 0.879486,-2.557885 0.54052,-0.660463 1.282577,-1.074649 2.093349,-1.074649 h 10.654608 c -4.608142,-2.641845 -7.901627,-8.188598 -4.035559,-13.26519 4.337891,-5.692279 11.428747,0.1847 14.332868,5.054205 1.433753,2.412361 2.633887,5.23891 3.71491,8.210985 h 1.163501 z m 9.472788,0 c 10.585898,-5.731457 7.07254,-15.386503 0.371029,-10.724094 -1.571161,1.091439 -2.885802,3.13439 -4.06762,5.177341 -1.113086,1.919814 -2.111683,3.940378 -2.853741,5.546753 z m -20.127396,0 C 46.441139,37.553085 49.949924,27.898039 56.651433,32.560448 c 1.571164,1.091439 2.885805,3.13439 4.067623,5.177341 1.113086,1.919814 2.111683,3.940378 2.85374,5.546753 z M 89.929893,78.66398 H 71.140046 v 13.265183 h 18.066089 c 0.201563,0 0.389368,-0.100695 0.522211,-0.268661 0.137455,-0.167965 0.21987,-0.391779 0.21987,-0.638067 V 78.66398 Z m -26.760188,0 H 44.109601 v 12.358455 c 0,0.246288 0.08241,0.475746 0.219872,0.638067 0.137463,0.167966 0.320631,0.268661 0.522186,0.268661 H 63.169705 Z M 44.109601,70.598521 H 63.169705 V 55.995617 H 44.109601 Z m 27.012111,0 H 89.911569 V 55.995617 H 71.121712 Z"
       fill="#f1384e"
       id="path1"
       style="stroke-width:0.506344" /><path
       d="m 117.30944,84.496465 q -2.96334,0 -5.28461,-1.3335 -2.32128,-1.3335 -3.65478,-3.654779 v 4.49439 h -5.7785 V 47.948679 h 6.61811 v 14.717892 q 1.38289,-2.370667 3.60539,-3.654779 2.27189,-1.3335 5.23522,-1.3335 2.51884,0 4.59317,1.086556 2.12372,1.086556 3.60539,2.913945 1.53106,1.827389 2.32128,4.296834 0.83961,2.469445 0.83961,5.185835 0,2.815167 -0.93839,5.235224 -0.889,2.420056 -2.51883,4.247445 -1.62984,1.778 -3.85234,2.815167 -2.2225,1.037167 -4.79072,1.037167 z m -1.82739,-5.630334 q 1.58044,0 2.86456,-0.592667 1.3335,-0.642056 2.27188,-1.679223 0.98778,-1.037167 1.48167,-2.420056 0.54328,-1.382889 0.54328,-2.963334 0,-1.580445 -0.49389,-3.012723 -0.49389,-1.432278 -1.43228,-2.518834 -0.889,-1.086556 -2.12372,-1.728611 -1.23472,-0.642056 -2.71639,-0.642056 -2.2225,0 -4.0005,1.481667 -1.72861,1.432278 -2.667,3.556001 v 6.173612 q 0.34572,0.987778 0.98778,1.778001 0.69144,0.790222 1.53105,1.382889 0.83961,0.543278 1.82739,0.889 0.98778,0.296334 1.92617,0.296334 z m 18.37264,5.136445 V 58.122792 h 6.61811 v 25.879784 z m 0,-29.485174 v -6.568723 h 6.61811 v 6.568723 z m 27.90474,9.334503 q -3.01272,0.04939 -5.38339,1.185333 -2.37067,1.086556 -3.40783,3.309057 v 15.656281 h -6.61812 V 58.122792 h 6.07484 v 5.531557 q 1.3335,-2.667001 3.45722,-4.296834 2.17311,-1.629834 4.54378,-1.629834 0.54328,0 0.79022,0.04939 0.29634,0 0.54328,0.04939 z m 19.26163,18.817171 q -1.3335,0.592667 -3.30905,1.185334 -1.92617,0.592666 -4.04989,0.592666 -1.38289,0 -2.61762,-0.345722 -1.18533,-0.345722 -2.12372,-1.086556 -0.889,-0.790222 -1.43228,-1.975556 -0.54327,-1.234722 -0.54327,-2.963334 V 63.209849 h -3.35845 v -5.087057 h 3.35845 v -8.396113 h 6.61811 v 8.396113 h 5.48217 v 5.087057 h -5.48217 v 12.643559 q 0,1.382889 0.74083,1.975556 0.74084,0.543278 1.778,0.543278 1.03717,0 2.02495,-0.345723 0.98778,-0.345722 1.58044,-0.592667 z m 27.36145,1.3335 H 201.7644 V 69.482239 q 0,-3.062111 -1.13595,-4.49439 -1.13594,-1.481667 -3.21027,-1.481667 -0.889,0 -1.87678,0.395112 -0.98778,0.395111 -1.87678,1.135944 -0.889,0.691445 -1.62983,1.679223 -0.74084,0.987778 -1.08656,2.173112 v 15.113003 h -6.61811 V 47.948679 h 6.61811 v 14.964837 q 1.43228,-2.518834 3.85233,-3.852335 2.46945,-1.382889 5.43278,-1.382889 2.51884,0 4.09928,0.889 1.58045,0.839612 2.46945,2.27189 0.889,1.432278 1.23472,3.259667 0.34572,1.82739 0.34572,3.753557 z m 16.39708,0.493889 q -2.667,0 -4.93889,-1.037167 -2.2225,-1.037167 -3.85234,-2.864556 -1.62983,-1.827389 -2.56822,-4.247445 -0.889,-2.469445 -0.889,-5.284613 0,-2.815167 0.83961,-5.235223 0.889,-2.420056 2.42006,-4.247446 1.53105,-1.827389 3.65478,-2.864556 2.12372,-1.037167 4.64255,-1.037167 2.81517,0 5.08706,1.382889 2.32128,1.38289 3.60539,3.60539 V 47.948679 h 6.61811 v 28.448007 q 0,1.037166 0.39511,1.481667 0.39511,0.4445 1.38289,0.493889 v 5.630334 q -1.87678,0.345723 -3.16089,0.345723 -1.82739,-0.04939 -2.86455,-0.839612 -0.98778,-0.790222 -1.23473,-2.2225 l -0.14816,-1.778001 q -1.43228,2.469445 -3.85234,3.753557 -2.42005,1.234722 -5.13644,1.234722 z m 1.72861,-5.630334 q 0.93839,0 1.92617,-0.296334 0.98777,-0.345722 1.82739,-0.938389 0.83961,-0.592667 1.53105,-1.382889 0.69145,-0.790223 1.03717,-1.728612 v -6.173612 q -0.83961,-2.173112 -2.76578,-3.60539 -1.87678,-1.432278 -3.95111,-1.432278 -1.48167,0 -2.76578,0.642056 -1.23472,0.642055 -2.12372,1.778 -0.889,1.086556 -1.38289,2.518834 -0.49389,1.432278 -0.49389,2.963334 0,1.629834 0.54328,3.012723 0.54327,1.382889 1.48166,2.420056 0.98778,1.037167 2.27189,1.629834 1.3335,0.592667 2.86456,0.592667 z m 26.71941,5.630334 q -1.87678,0 -3.50661,-0.592667 -1.62983,-0.642055 -2.81517,-1.728611 -1.18533,-1.135945 -1.87678,-2.617612 -0.64205,-1.481667 -0.64205,-3.259667 0,-1.82739 0.79022,-3.358446 0.83961,-1.580444 2.27189,-2.667 1.48167,-1.086556 3.50661,-1.679223 2.02495,-0.642056 4.445,-0.642056 1.72861,0 3.35845,0.296334 1.67922,0.296333 2.96333,0.839611 v -1.481667 q 0,-2.568223 -1.48167,-3.951112 -1.43227,-1.382889 -4.29683,-1.382889 -2.07433,0 -4.04989,0.740833 -1.97556,0.740834 -4.04989,2.173112 l -2.02494,-4.198057 q 4.98827,-3.309056 10.76678,-3.309056 5.58094,0 8.64305,2.765779 3.1115,2.716389 3.1115,7.902224 v 8.050391 q 0,1.037166 0.39512,1.481667 0.39511,0.4445 1.38288,0.493889 v 5.630334 q -0.93838,0.197556 -1.778,0.246945 -0.79022,0.09878 -1.38288,0.09878 -1.87678,-0.04939 -2.86456,-0.839612 -0.98778,-0.839611 -1.23472,-2.2225 l -0.14817,-1.432278 q -1.72861,2.271889 -4.19806,3.457223 -2.46944,1.185333 -5.28461,1.185333 z m 1.87678,-4.840112 q 1.67922,0 3.16089,-0.592667 1.53105,-0.592667 2.37067,-1.580445 1.08655,-0.839611 1.08655,-1.876778 v -2.963334 q -1.18533,-0.4445 -2.56822,-0.691445 -1.38289,-0.296333 -2.667,-0.296333 -2.56822,0 -4.19806,1.185334 -1.62983,1.135944 -1.62983,2.913945 0,1.679222 1.28411,2.815167 1.28411,1.086556 3.16089,1.086556 z m 18.91587,9.383891 q 0.889,0.246945 1.62983,0.345722 0.74084,0.09878 1.28412,0.09878 0.64205,0 1.13594,-0.246944 0.49389,-0.197556 0.93839,-0.790223 0.49389,-0.592667 0.93839,-1.679222 0.49389,-1.037167 1.03717,-2.765779 L 270.7112,58.122792 h 6.81567 l 7.06262,20.150672 6.223,-20.150672 h 6.223 l -10.91495,31.01623 q -1.03717,2.963334 -3.30905,4.543779 -2.27189,1.629833 -5.28462,1.629833 -1.72861,0 -3.50661,-0.543277 z m 38.77036,-5.037668 V 66.222572 h -3.35844 v -5.087057 h 3.35844 v -3.210278 q 0,-4.840113 2.32128,-7.65528 2.37067,-2.815167 6.32178,-2.815167 3.16089,0 6.37117,1.531056 l -1.3335,4.988279 q -0.74084,-0.395112 -1.778,-0.642056 -0.98778,-0.296334 -1.82739,-0.296334 -3.45723,0 -3.45723,4.642557 v 3.457223 h 6.32178 v 5.087057 h -6.32178 v 17.780004 z m 32.54731,-20.150671 q -3.01272,0.04939 -5.38339,1.185333 -2.37066,1.086556 -3.40783,3.309057 V 84.002576 H 329.9286 V 58.122792 h 6.07483 v 5.531557 q 1.3335,-2.667001 3.45723,-4.296834 2.17311,-1.629834 4.54377,-1.629834 0.54328,0 0.79023,0.04939 0.29633,0 0.54327,0.04939 z m 15.75502,20.64456 q -3.1115,0 -5.63033,-1.037167 -2.51884,-1.086556 -4.29684,-2.913945 -1.778,-1.827389 -2.76577,-4.247445 -0.93839,-2.420056 -0.93839,-5.087057 0,-2.765779 0.93839,-5.185835 0.93839,-2.469445 2.71639,-4.296834 1.778,-1.876778 4.29683,-2.963334 2.56822,-1.086556 5.72911,-1.086556 3.16089,0 5.63034,1.086556 2.51883,1.086556 4.24744,2.913945 1.778,1.827389 2.667,4.247446 0.93839,2.420056 0.93839,5.037667 0,0.642056 -0.0494,1.234723 0,0.592667 -0.0988,0.987778 H 354.4748 q 0.14817,1.531056 0.74083,2.716389 0.59267,1.185334 1.53106,2.024945 0.93839,0.839612 2.12372,1.284112 1.18534,0.4445 2.46945,0.4445 1.97555,0 3.70417,-0.938389 1.778,-0.987778 2.42005,-2.568223 l 5.67973,1.580445 q -1.43228,2.963334 -4.59317,4.889501 -3.1115,1.876778 -7.45773,1.876778 z m 6.71689,-15.606892 q -0.24694,-2.913946 -2.17311,-4.642557 -1.87678,-1.778001 -4.59317,-1.778001 -1.3335,0 -2.51883,0.493889 -1.13594,0.444501 -2.02494,1.284112 -0.889,0.839611 -1.48167,2.024945 -0.54328,1.185333 -0.64206,2.617612 z m 22.91646,15.606892 q -3.1115,0 -5.63033,-1.037167 -2.51884,-1.086556 -4.29684,-2.913945 -1.778,-1.827389 -2.76578,-4.247445 -0.93839,-2.420056 -0.93839,-5.087057 0,-2.765779 0.93839,-5.185835 0.93839,-2.469445 2.71639,-4.296834 1.778,-1.876778 4.29684,-2.963334 2.56822,-1.086556 5.72911,-1.086556 3.16089,0 5.63033,1.086556 2.51884,1.086556 4.24745,2.913945 1.778,1.827389 2.667,4.247446 0.93839,2.420056 0.93839,5.037667 0,0.642056 -0.0494,1.234723 0,0.592667 -0.0988,0.987778 h -20.0025 q 0.14816,1.531056 0.74083,2.716389 0.59267,1.185334 1.53106,2.024945 0.93839,0.839612 2.12372,1.284112 1.18533,0.4445 2.46944,0.4445 1.97556,0 3.70417,-0.938389 1.778,-0.987778 2.42006,-2.568223 l 5.67972,1.580445 q -1.43228,2.963334 -4.59317,4.889501 -3.1115,1.876778 -7.45772,1.876778 z m 6.71689,-15.606892 q -0.24694,-2.913946 -2.17311,-4.642557 -1.87678,-1.778001 -4.59317,-1.778001 -1.3335,0 -2.51883,0.493889 -1.13595,0.444501 -2.02495,1.284112 -0.889,0.839611 -1.48166,2.024945 -0.54328,1.185333 -0.64206,2.617612 z m 25.58347,15.606892 q -2.96333,0 -5.28461,-1.3335 -2.32128,-1.3335 -3.65478,-3.654779 v 4.49439 h -5.7785 V 47.948679 h 6.61811 v 14.717892 q 1.38289,-2.370667 3.60539,-3.654779 2.27189,-1.3335 5.23523,-1.3335 2.51883,0 4.59316,1.086556 2.12373,1.086556 3.60539,2.913945 1.53106,1.827389 2.32128,4.296834 0.83961,2.469445 0.83961,5.185835 0,2.815167 -0.93839,5.235224 -0.889,2.420056 -2.51883,4.247445 -1.62983,1.778 -3.85233,2.815167 -2.2225,1.037167 -4.79073,1.037167 z m -1.82739,-5.630334 q 1.58045,0 2.86456,-0.592667 1.3335,-0.642056 2.27189,-1.679223 0.98778,-1.037167 1.48167,-2.420056 0.54327,-1.382889 0.54327,-2.963334 0,-1.580445 -0.49389,-3.012723 -0.49388,-1.432278 -1.43227,-2.518834 -0.889,-1.086556 -2.12373,-1.728611 -1.23472,-0.642056 -2.71639,-0.642056 -2.2225,0 -4.0005,1.481667 -1.72861,1.432278 -2.667,3.556001 v 6.173612 q 0.34573,0.987778 0.98778,1.778001 0.69145,0.790222 1.53106,1.382889 0.83961,0.543278 1.82739,0.889 0.98777,0.296334 1.92616,0.296334 z m 18.37265,5.136445 V 58.122792 h 6.61812 v 25.879784 z m 0,-29.485174 v -6.568723 h 6.61812 v 6.568723 z m 24.54629,29.979063 q -3.1115,0 -5.63034,-1.037167 -2.51883,-1.086556 -4.29683,-2.913945 -1.778,-1.827389 -2.76578,-4.247445 -0.93839,-2.420056 -0.93839,-5.087057 0,-2.765779 0.93839,-5.185835 0.93839,-2.469445 2.71639,-4.296834 1.778,-1.876778 4.29683,-2.963334 2.56823,-1.086556 5.72912,-1.086556 3.16089,0 5.63033,1.086556 2.51883,1.086556 4.24745,2.913945 1.778,1.827389 2.667,4.247446 0.93839,2.420056 0.93839,5.037667 0,0.642056 -0.0494,1.234723 0,0.592667 -0.0988,0.987778 h -20.00251 q 0.14817,1.531056 0.74084,2.716389 0.59266,1.185334 1.53105,2.024945 0.93839,0.839612 2.12373,1.284112 1.18533,0.4445 2.46944,0.4445 1.97556,0 3.70417,-0.938389 1.778,-0.987778 2.42006,-2.568223 l 5.67972,1.580445 q -1.43228,2.963334 -4.59317,4.889501 -3.1115,1.876778 -7.45772,1.876778 z m 6.71689,-15.606892 q -0.24695,-2.913946 -2.17311,-4.642557 -1.87678,-1.778001 -4.59317,-1.778001 -1.3335,0 -2.51884,0.493889 -1.13594,0.444501 -2.02494,1.284112 -0.889,0.839611 -1.48167,2.024945 -0.54328,1.185333 -0.64205,2.617612 z"
       id="text1"
       style="font-weight:bold;font-size:49.3889px;font-family:Raleway;-inkscape-font-specification:'Raleway, Bold';fill:#f1384e;stroke-width:0.264583"
       aria-label="birthday freebie" /></g><style
     type="text/css"
     id="style1">.st0{fill-rule:evenodd;clip-rule:evenodd;}</style></svg>
