<?xml version="1.0" encoding="UTF-8" standalone="no"?>
<!-- Created with Inkscape (http://www.inkscape.org/) -->

<svg
   width="1267.3964"
   height="254.27278"
   viewBox="0 0 335.33194 67.276337"
   version="1.1"
   id="svg1"
   xml:space="preserve"
   xmlns="http://www.w3.org/2000/svg"
   xmlns:svg="http://www.w3.org/2000/svg"><defs
     id="defs1" /><g
     id="layer1"
     transform="translate(-38.841844,-27.686487)"><path
       class="st0"
       d="m 67.67707,43.284542 c 1.081023,-2.988866 2.281158,-5.815415 3.71491,-8.210984 2.904139,-4.8695 9.994993,-10.729693 14.332863,-5.054206 3.884402,5.076594 0.590906,10.623347 -4.035553,13.26519 h 10.466797 c 0.810769,0 1.571165,0.414187 2.093367,1.074648 0.540502,0.660462 0.879489,1.567197 0.879489,2.557887 v 6.890064 c 0,0.990692 -0.338987,1.919814 -0.879489,2.557887 -0.490137,0.598891 -1.131416,0.990692 -1.855174,1.05226 v 33.627529 c 0,1.074651 -0.352713,2.065337 -0.943611,2.76498 -0.572592,0.699643 -1.383361,1.153024 -2.262849,1.153024 H 44.851659 c -0.879487,0 -1.690258,-0.430982 -2.262841,-1.153024 -0.572584,-0.699643 -0.943613,-1.690329 -0.943613,-2.76498 V 57.439676 C 40.90313,57.378116 40.225199,56.98631 39.72133,56.387416 39.18081,55.726955 38.841844,54.820221 38.841844,53.82953 v -6.890065 c 0,-0.99069 0.338966,-1.919813 0.879486,-2.557885 0.54052,-0.660463 1.282577,-1.074649 2.093349,-1.074649 h 10.654608 c -4.608142,-2.641845 -7.901627,-8.188598 -4.035559,-13.26519 4.337891,-5.692279 11.428747,0.1847 14.332868,5.054205 1.433753,2.412361 2.633887,5.23891 3.71491,8.210985 h 1.163501 z m 9.472788,0 c 10.585898,-5.731457 7.07254,-15.386503 0.371029,-10.724094 -1.571161,1.091439 -2.885802,3.13439 -4.06762,5.177341 -1.113086,1.919814 -2.111683,3.940378 -2.853741,5.546753 z m -20.127396,0 C 46.441139,37.553085 49.949924,27.898039 56.651433,32.560448 c 1.571164,1.091439 2.885805,3.13439 4.067623,5.177341 1.113086,1.919814 2.111683,3.940378 2.85374,5.546753 z M 89.929893,78.66398 H 71.140046 v 13.265183 h 18.066089 c 0.201563,0 0.389368,-0.100695 0.522211,-0.268661 0.137455,-0.167965 0.21987,-0.391779 0.21987,-0.638067 V 78.66398 Z m -26.760188,0 H 44.109601 v 12.358455 c 0,0.246288 0.08241,0.475746 0.219872,0.638067 0.137463,0.167966 0.320631,0.268661 0.522186,0.268661 H 63.169705 Z M 44.109601,70.598521 H 63.169705 V 55.995617 H 44.109601 Z m 27.012111,0 H 89.911569 V 55.995617 H 71.121712 Z"
       fill="#f1384e"
       id="path1"
       style="stroke-width:0.506344" /><text
       xml:space="preserve"
       style="font-size:35.2778px;font-family:Symbol;-inkscape-font-specification:Symbol;fill:#f1384e;fill-opacity:1;stroke:none;stroke-width:0.264583"
       x="104.15758"
       y="79.627701"
       id="text1"><tspan
         id="tspan1"
         style="font-style:normal;font-variant:normal;font-weight:bold;font-stretch:normal;font-size:35.2778px;font-family:Raleway;-inkscape-font-specification:'Raleway Bold';fill:#f1384e;fill-opacity:1;stroke:none;stroke-width:0.264583"
         x="104.15758"
         y="79.627701">birthday freebie</tspan></text><text
       xml:space="preserve"
       style="font-style:normal;font-variant:normal;font-weight:bold;font-stretch:normal;font-size:14.1111px;font-family:Raleway;-inkscape-font-specification:'Raleway Bold';fill:#000000;fill-opacity:0;stroke:none;stroke-width:0.264583"
       x="112.83736"
       y="85.665825"
       id="text2"><tspan
         id="tspan2"
         style="font-size:14.1111px;fill:#ffaacc;stroke:none;stroke-width:0.264583;stroke-opacity:1"
         x="112.83736"
         y="85.665825">FREEBIES, DISCOUNTS</tspan></text></g><style
     type="text/css"
     id="style1">.st0{fill-rule:evenodd;clip-rule:evenodd;}</style></svg>
