<?xml version="1.0" encoding="UTF-8" standalone="no"?>
<!-- Created with Inkscape (http://www.inkscape.org/) -->

<svg
   width="1254.6797"
   height="254.2728"
   viewBox="0 0 331.96732 67.276327"
   version="1.1"
   id="svg1"
   xml:space="preserve"
   sodipodi:docname="logo.svg"
   inkscape:version="1.3 (0e150ed6c4, 2023-07-21)"
   xmlns:inkscape="http://www.inkscape.org/namespaces/inkscape"
   xmlns:sodipodi="http://sodipodi.sourceforge.net/DTD/sodipodi-0.dtd"
   xmlns="http://www.w3.org/2000/svg"
   xmlns:svg="http://www.w3.org/2000/svg"><sodipodi:namedview
     id="namedview1"
     pagecolor="#ffffff"
     bordercolor="#000000"
     borderopacity="0.25"
     inkscape:showpageshadow="2"
     inkscape:pageopacity="0.0"
     inkscape:pagecheckerboard="0"
     inkscape:deskcolor="#d1d1d1"
     showgrid="false"
     inkscape:zoom="0.75542475"
     inkscape:cx="640.69916"
     inkscape:cy="144.95157"
     inkscape:window-width="1920"
     inkscape:window-height="1001"
     inkscape:window-x="-9"
     inkscape:window-y="-9"
     inkscape:window-maximized="1"
     inkscape:current-layer="svg1" /><defs
     id="defs1" /><g
     id="layer1"
     transform="translate(-42.206503,-37.893356)"><path
       class="st0"
       d="m 71.041729,53.491412 c 1.081023,-2.988866 2.281158,-5.815415 3.71491,-8.210984 2.904139,-4.8695 9.994993,-10.729693 14.332863,-5.054206 3.884402,5.076594 0.590906,10.623347 -4.035553,13.26519 h 10.466797 c 0.810769,0 1.571165,0.414187 2.093367,1.074648 0.540502,0.660462 0.879489,1.567197 0.879489,2.557887 v 6.890064 c 0,0.990692 -0.338987,1.919814 -0.879489,2.557887 -0.490137,0.598891 -1.131416,0.990692 -1.855174,1.05226 v 33.627532 c 0,1.07465 -0.352713,2.06533 -0.943611,2.76498 -0.572592,0.69964 -1.383361,1.15302 -2.262849,1.15302 H 48.216318 c -0.879487,0 -1.690258,-0.43098 -2.262841,-1.15302 -0.572584,-0.69965 -0.943613,-1.69033 -0.943613,-2.76498 V 67.646546 c -0.742075,-0.06156 -1.420006,-0.453366 -1.923875,-1.05226 -0.54052,-0.660461 -0.879486,-1.567195 -0.879486,-2.557886 v -6.890065 c 0,-0.99069 0.338966,-1.919813 0.879486,-2.557885 0.54052,-0.660463 1.282577,-1.074649 2.093349,-1.074649 h 10.654608 c -4.608142,-2.641845 -7.901627,-8.188598 -4.035559,-13.26519 4.337891,-5.692279 11.428747,0.1847 14.332868,5.054205 1.433753,2.412361 2.633887,5.23891 3.71491,8.210985 h 1.163501 z m 9.472788,0 c 10.585898,-5.731457 7.07254,-15.386503 0.371029,-10.724094 -1.571161,1.091439 -2.885802,3.13439 -4.06762,5.177341 -1.113086,1.919814 -2.111683,3.940378 -2.853741,5.546753 z m -20.127396,0 C 49.805798,47.759955 53.314583,38.104909 60.016092,42.767318 c 1.571164,1.091439 2.885805,3.13439 4.067623,5.177341 1.113086,1.919814 2.111683,3.940378 2.85374,5.546753 z M 93.294552,88.87085 H 74.504705 v 13.26518 h 18.066089 c 0.201563,0 0.389368,-0.10069 0.522211,-0.26866 0.137455,-0.16796 0.21987,-0.39178 0.21987,-0.63807 V 88.87085 Z m -26.760188,0 H 47.47426 v 12.35845 c 0,0.24629 0.08241,0.47575 0.219872,0.63807 0.137463,0.16797 0.320631,0.26866 0.522186,0.26866 H 66.534364 Z M 47.47426,80.805391 H 66.534364 V 66.202487 H 47.47426 Z m 27.012111,0 H 93.276228 V 66.202487 H 74.486371 Z"
       fill="#f1384e"
       id="path1"
       style="stroke-width:0.506344" /><text
       xml:space="preserve"
       style="font-size:35.2778px;font-family:Symbol;-inkscape-font-specification:Symbol;fill:#f1384e;fill-opacity:1;stroke:none;stroke-width:0.264583"
       x="104.15758"
       y="79.627701"
       id="text1"><tspan
         id="tspan1"
         style="font-style:normal;font-variant:normal;font-weight:bold;font-stretch:normal;font-size:35.2778px;font-family:Raleway;-inkscape-font-specification:'Raleway Bold';fill:#f1384e;fill-opacity:1;stroke:none;stroke-width:0.264583"
         x="104.15758"
         y="79.627701">birthday freebie</tspan></text><text
       xml:space="preserve"
       style="font-style:normal;font-variant:normal;font-weight:bold;font-stretch:normal;font-size:14.1111px;font-family:Raleway;-inkscape-font-specification:'Raleway Bold';fill:#000000;fill-opacity:0;stroke:none;stroke-width:0.264583"
       x="112.83736"
       y="85.665825"
       id="text2"><tspan
         id="tspan2"
         style="font-size:14.1111px;fill:#ffaacc;stroke:none;stroke-width:0.264583;stroke-opacity:1"
         x="112.83736"
         y="85.665825">FREEBIES, DISCOUNTS</tspan></text></g><style
     type="text/css"
     id="style1">.st0{fill-rule:evenodd;clip-rule:evenodd;}</style><text
     xml:space="preserve"
     style="font-size:12.7px;font-family:Symbol;-inkscape-font-specification:Symbol;fill:#000000;stroke:#000000;stroke-width:0.264583"
     x="63.937"
     y="61.934235"
     id="text3"><tspan
       sodipodi:role="line"
       id="tspan3"
       style="font-style:normal;font-variant:normal;font-weight:normal;font-stretch:normal;font-size:12.7px;font-family:Raleway;-inkscape-font-specification:Raleway;stroke-width:0.264583"
       x="63.937"
       y="61.934235">freebies and discounts for your birthday</tspan></text></svg>
